<?xml version="1.0" encoding="utf-8"?>
<!-- Generator: Adobe Illustrator 15.1.0, SVG Export Plug-In . SVG Version: 6.00 Build 0)  -->
<!DOCTYPE svg PUBLIC "-//W3C//DTD SVG 1.1//EN" "http://www.w3.org/Graphics/SVG/1.1/DTD/svg11.dtd">
<svg version="1.1" id="Camada_1" xmlns="http://www.w3.org/2000/svg" xmlns:xlink="http://www.w3.org/1999/xlink" x="0px" y="0px"
	 width="16px" height="16px" viewBox="0 0 16 16" enable-background="new 0 0 16 16" xml:space="preserve">
<path fill="#009EE2" d="M8,0C3.589,0,0,3.589,0,8c0,4.412,3.589,8,8,8s8-3.589,8-8C16,3.589,12.411,0,8,0z M14.823,8c0,1.561-0.53,3-1.414,4.151
	c-0.25-0.195-0.516-0.723-0.266-1.27c0.251-0.551,0.318-1.823,0.26-2.318c-0.056-0.495-0.312-1.689-1.012-1.7
	c-0.698-0.01-1.177-0.241-1.592-1.069c-0.861-1.723,1.617-2.054,0.755-3.009c-0.241-0.268-1.486,1.103-1.668-0.724
	C9.875,1.931,10,1.735,10.167,1.532C12.87,2.44,14.823,4.995,14.823,8z M7.062,1.245C6.899,1.562,6.469,1.691,6.207,1.93
	C5.637,2.446,5.393,2.375,5.085,2.87C4.776,3.364,3.779,4.078,3.779,4.436c0,0.357,0.504,0.78,0.755,0.698
	C4.786,5.051,5.45,5.055,5.84,5.192c0.391,0.139,3.262,0.276,2.347,2.704c-0.29,0.771-1.561,0.642-1.899,1.92
	c-0.05,0.187-0.226,0.987-0.238,1.25c-0.021,0.405,0.287,1.932-0.104,1.932c-0.393,0-1.448-1.366-1.448-1.612
	c0-0.248-0.274-1.116-0.274-1.859c0-0.742-1.264-0.73-1.264-1.718c0-0.892,0.686-1.334,0.531-1.762
	C3.34,5.621,2.136,5.605,1.634,5.554C2.511,3.278,4.575,1.588,7.062,1.245z M5.854,14.475c0.409-0.217,0.451-0.496,0.822-0.512
	c0.426-0.02,0.771-0.166,1.25-0.271c0.426-0.093,1.186-0.524,1.856-0.58c0.564-0.046,1.679,0.03,1.979,0.575
	c-1.08,0.717-2.374,1.135-3.762,1.135C7.25,14.822,6.529,14.699,5.854,14.475z"/>
</svg>
