<?xml version="1.0" encoding="utf-8"?>
<!DOCTYPE svg PUBLIC "-//W3C//DTD SVG 1.1//EN" "http://www.w3.org/Graphics/SVG/1.1/DTD/svg11.dtd">
<svg version="1.1" id="Layer_1"
	 xmlns="http://www.w3.org/2000/svg" xmlns:xlink="http://www.w3.org/1999/xlink" x="0px" y="0px" width="235.642px"
	 height="52.745px" viewBox="0 0 235.642 52.745" enable-background="new 0 0 235.642 52.745" xml:space="preserve">
<switch>
	<g>
		<polygon fill="#1A171C" points="30.066,1.229 45.099,16.263 60.132,1.229 		"/>
		
			<rect x="19.436" y="5.633" transform="matrix(0.7071 -0.7071 0.7071 0.7071 -2.6932 26.0236)" fill="#87888A" width="21.26" height="21.26"/>
		
			<rect x="4.403" y="20.665" transform="matrix(0.7071 -0.7071 0.7071 0.7071 -17.7261 19.7963)" fill="#B1B3B4" width="21.26" height="21.26"/>
		
			<rect x="34.469" y="20.666" transform="matrix(0.7071 -0.7071 0.7071 0.7071 -8.92 41.0566)" fill="#B1B3B4" width="21.26" height="21.26"/>
		
			<rect x="49.502" y="5.633" transform="matrix(0.7071 -0.7071 0.7071 0.7071 6.1127 47.2829)" fill="#87888A" width="21.26" height="21.26"/>
		
			<rect x="64.535" y="20.666" transform="matrix(0.7071 -0.7071 0.7071 0.7071 -0.114 62.316)" fill="#B1B3B4" width="21.26" height="21.26"/>
		<g>
			<path fill="#58585A" d="M106.091,46.329v-19.98h12.349v3.325h-8.687v5.317h8.027v3.325h-8.027v8.013H106.091z"/>
			<path fill="#58585A" d="M120.93,40.982v-3.867c0-3.799,2.021-5.698,6.064-5.698c2.23,0,3.773,0.53,4.631,1.59
				s1.287,2.492,1.287,4.299v3.12h-8.32v0.747c0,0.898,0.205,1.533,0.615,1.904s1.157,0.557,2.241,0.557
				c1.513,0,3.051-0.229,4.614-0.688l0.603,2.754c-1.675,0.615-3.526,0.923-5.554,0.923c-2.197,0-3.777-0.48-4.739-1.443
				C121.411,44.217,120.93,42.818,120.93,40.982z M124.592,37.481h4.658v-0.643c0-0.681-0.161-1.201-0.483-1.56
				c-0.322-0.357-0.903-0.537-1.743-0.537c-1.621,0-2.432,0.699-2.432,2.097V37.481z"/>
			<path fill="#58585A" d="M136.018,46.329V31.724h2.798l0.352,1.146c2.08-0.96,4.033-1.444,5.859-1.454
				c2.197,0,3.296,1.44,3.296,4.321v10.591h-3.662V35.936c0-0.796-0.391-1.194-1.172-1.194c-0.977,0-2.246,0.418-3.809,1.254v10.333
				H136.018z"/>
			<path fill="#58585A" d="M152.365,29.644v-4.219h3.662v4.219H152.365z M152.365,46.329V31.724h3.662v14.604H152.365z"/>
			<path fill="#58585A" d="M158.488,46.329l4.775-7.348l-4.688-7.257h3.604l2.9,4.463l2.9-4.463h3.574l-4.666,7.245l4.783,7.359
				h-3.662l-2.934-4.543l-2.925,4.543H158.488z"/>
			<path fill="#58585A" d="M174.411,46.329v-19.98h12.231v3.325h-8.569v4.834h7.91v3.325h-7.91v5.171h8.569v3.325H174.411z"/>
			<path fill="#58585A" d="M189.777,41.553v-4.98c0-3.438,1.611-5.156,4.834-5.156c1.26,0,2.559,0.151,3.896,0.453v-6.122
				l3.662-0.513v21.094h-2.9l-0.366-1.319c-1.416,1.075-2.954,1.612-4.614,1.612c-1.484,0-2.607-0.43-3.369-1.289
				S189.777,43.213,189.777,41.553z M193.439,41.535c0,0.588,0.137,1.028,0.41,1.321c0.273,0.294,0.737,0.44,1.392,0.44
				c1.221,0,2.31-0.419,3.267-1.258v-6.92c-1.182-0.251-2.261-0.377-3.237-0.377c-0.645,0-1.111,0.149-1.399,0.447
				c-0.288,0.299-0.432,0.769-0.432,1.412V41.535z"/>
			<path fill="#58585A" d="M206.213,42.315V31.724h3.662v10.379c0,0.796,0.391,1.193,1.172,1.193c0.977,0,2.246-0.417,3.809-1.253
				V31.724h3.662v14.604h-2.798l-0.352-1.152c-2.08,0.964-4.033,1.445-5.859,1.445C207.312,46.631,206.213,45.196,206.213,42.315z"
				/>
			<path fill="#58585A" d="M222.106,27.549v-1.201h4.688v1.201h-1.685v4.922h-1.318v-4.922H222.106z M227.849,32.471l0.205-6.123
				h1.381l1.471,3.943l1.516-3.943h1.331l0.234,6.123h-1.289l-0.059-3.545l-1.06,2.798h-1.343l-1.04-2.745l-0.088,3.492H227.849z"/>
		</g>
		<g>
			<path fill="#58585A" d="M105.275,2.668h3.618c2.145,0,2.929,0.977,2.929,2.465v1.665c0,1.488-0.784,2.465-2.929,2.465h-2.673
				v4.065h-0.944V2.668z M108.909,3.517h-2.689v4.897h2.689c1.344,0,1.969-0.448,1.969-1.616V5.133
				C110.878,3.964,110.253,3.517,108.909,3.517z"/>
			<path fill="#58585A" d="M116.525,13.488c-2.193,0-3.025-1.232-3.025-2.833V8.206c0-1.601,0.833-2.833,3.025-2.833
				s3.025,1.232,3.025,2.833v2.449C119.55,12.256,118.718,13.488,116.525,13.488z M118.622,8.174c0-1.312-0.64-1.969-2.097-1.969
				c-1.457,0-2.097,0.656-2.097,1.969v2.514c0,1.312,0.64,1.969,2.097,1.969c1.457,0,2.097-0.656,2.097-1.969V8.174z"/>
			<path fill="#58585A" d="M122.684,13.328l-1.776-7.795h0.88l1.601,7.171l2.113-7.171h1.249l2.097,7.171l1.617-7.171h0.88
				l-1.777,7.795h-1.393l-2.049-7.123l-2.049,7.123H122.684z"/>
			<path fill="#58585A" d="M135.66,12.672c0.8,0,1.697-0.16,2.465-0.368l0.16,0.752c-0.721,0.257-1.745,0.433-2.689,0.433
				c-2.193,0-2.897-1.137-2.897-2.833V8.206c0-1.601,0.72-2.833,2.913-2.833s2.833,1.232,2.833,2.833v1.505h-4.818v0.977
				C133.627,12.08,134.107,12.672,135.66,12.672z M133.627,8.878h3.906V8.174c0-1.312-0.464-2.001-1.921-2.001
				s-1.985,0.688-1.985,2.001V8.878z"/>
			<path fill="#58585A" d="M144.156,6.285c-0.816,0.353-1.713,0.944-2.465,1.44v5.603h-0.929V5.533h0.833l0.048,1.185
				c0.833-0.545,1.665-1.072,2.401-1.345L144.156,6.285z"/>
			<path fill="#58585A" d="M148.316,12.672c0.8,0,1.697-0.16,2.465-0.368l0.16,0.752c-0.721,0.257-1.745,0.433-2.689,0.433
				c-2.193,0-2.897-1.137-2.897-2.833V8.206c0-1.601,0.72-2.833,2.913-2.833s2.833,1.232,2.833,2.833v1.505h-4.818v0.977
				C146.283,12.08,146.764,12.672,148.316,12.672z M146.283,8.878h3.906V8.174c0-1.312-0.464-2.001-1.921-2.001
				s-1.985,0.688-1.985,2.001V8.878z"/>
			<path fill="#58585A" d="M153.179,7.773c0-1.424,0.64-2.4,2.401-2.4c0.816,0,1.504,0.08,2.401,0.256V2.348l0.928-0.128v11.108
				h-0.848l-0.048-0.736c-0.785,0.592-1.761,0.896-2.625,0.896c-1.521,0-2.209-0.752-2.209-2.161V7.773z M157.98,6.478
				c-0.848-0.176-1.681-0.272-2.433-0.272c-1.024,0-1.44,0.513-1.44,1.568v3.554c0,0.896,0.288,1.329,1.345,1.329
				c0.96,0,1.792-0.4,2.529-0.993V6.478z"/>
			<path fill="#58585A" d="M170.877,10.735c0,1.744-0.769,2.753-3.122,2.753c-0.672,0-1.889-0.112-2.609-0.288V2.348l0.929-0.128
				v3.745c0.64-0.336,1.504-0.592,2.561-0.592c1.568,0,2.241,0.896,2.241,2.272V10.735z M166.075,12.479
				c0.608,0.112,1.232,0.16,1.792,0.16c1.681,0,2.081-0.704,2.081-1.873V7.63c0-0.929-0.416-1.36-1.44-1.36
				c-0.945,0-1.697,0.256-2.433,0.672V12.479z"/>
			<path fill="#58585A" d="M176.22,13.328l-1.152,3.153h-0.912l1.168-3.153h-0.528l-2.641-7.795h0.944l2.401,7.139l2.416-7.139
				h0.945L176.22,13.328z"/>
		</g>
	</g>
</switch>
</svg>
